<svg width="46" height="46" viewBox="0 0 46 46" fill="none" xmlns="http://www.w3.org/2000/svg">
<path d="M0 23.0012C0 35.6832 10.3185 46 23.0012 46C35.684 46 46 35.6832 46 23.0012C46 10.3193 35.6823 0 23.0012 0C10.3201 0 0 10.3185 0 23.0012ZM0.176377 23.0012C0.176377 10.4145 10.4161 0.177198 23.0012 0.177198C35.5864 0.177198 45.8236 10.4145 45.8236 23.0012C45.8236 35.588 35.5855 45.8244 23.0012 45.8244C10.4169 45.8244 0.176377 35.5864 0.176377 23.0012Z" fill="white"/>
<path d="M28.8217 15.5105V16.2726H21.404V15.5162H17.8412V16.2726H12.2012V19.4662C12.2012 19.4662 12.5638 19.4662 12.7484 19.4654C12.1864 20.1767 11.9116 21.0216 11.9116 22.1185C11.9116 23.0061 12.2964 23.9872 12.9395 24.7395C13.6918 25.7125 15.0093 26.3187 16.376 26.3187H23.2728V25.6288H23.6649V26.3015L33.8579 26.3187L33.8521 23.0094H32.3845V19.545H33.8579L33.8644 16.2734H32.4345V15.5039L28.82 15.5113L28.8217 15.5105ZM32.2532 15.6852V16.4547H33.6831C33.6831 16.6212 33.6774 19.1963 33.6774 19.3629H32.2048V23.1907H33.6716C33.6716 23.358 33.6766 25.97 33.6766 26.1366C33.4985 26.1349 24.0242 26.1202 23.8478 26.1202V25.4475H23.0931V26.1374H16.3776C15.0659 26.1374 13.8017 25.5582 13.0823 24.6255C12.4637 23.9019 12.0945 22.9651 12.0945 22.1193C12.0945 20.9929 12.3809 20.1398 12.9961 19.4342L13.1274 19.2833C13.1274 19.2833 12.5179 19.2849 12.3841 19.2858V16.4555H18.0241V15.6992H21.2219V16.4555H29.0038V15.6926C29.172 15.6926 32.0859 15.6868 32.2541 15.686" fill="white"/>
<path d="M26.8717 19.7206C26.8717 19.1422 26.4993 18.755 26.0399 18.755C25.5805 18.755 25.2105 19.1422 25.2105 19.7206C25.2105 20.2989 25.5846 20.6902 26.0399 20.6902C26.4952 20.6902 26.8717 20.3145 26.8717 19.7206ZM18.7871 20.3687C18.7871 19.874 18.4474 19.4999 18.0258 19.4999C17.6041 19.4999 17.2653 19.8732 17.2653 20.3687C17.2653 20.8642 17.6057 21.2374 18.0258 21.2374C18.4458 21.2374 18.7871 20.8724 18.7871 20.3687ZM26.9947 21.9979C26.4722 21.9979 26.0013 22.3351 26.0013 22.8962C26.0013 23.4573 26.4722 23.7928 26.9947 23.7928C27.5173 23.7928 27.9882 23.4516 27.9882 22.8962C27.9882 22.3408 27.519 21.9979 26.9947 21.9979ZM33.1122 18.8928V17.0167H31.6667V16.2849H29.5526V17.0167H20.6854V16.2849H18.5713V17.0167H13.0052V18.8928H14.6803C13.5195 19.3998 12.7697 20.5065 12.7697 22.1242C12.7697 24.2957 14.8116 25.5312 16.4556 25.5312H22.5952V24.8716H24.3327V25.5312H33.1122V23.655H31.6667V18.892H33.1122V18.8928ZM17.1865 18.2308H18.8691V18.7255H17.1865V18.2308ZM16.4589 20.3687C16.4589 19.9872 16.682 19.6492 17.0422 19.4285H16.4466V18.9322H19.6082V19.4285H19.0118C19.3703 19.6492 19.5926 19.9872 19.5926 20.3687C19.5926 21.0315 18.9183 21.5705 18.0258 21.5705C17.1332 21.5705 16.4589 21.0315 16.4589 20.3687ZM21.0463 24.1079L18.0996 24.1046C17.4917 24.1046 17.1168 23.7535 17.1168 23.1776V22.0307H18.0504V23.6115H21.0463V24.1079ZM21.6911 20.1669H20.9905V22.2735H20.1316V18.2308H20.9905V19.6714H21.6911V20.166V20.1669ZM24.3335 19.7206C24.3335 18.9519 25.0702 18.3276 26.0399 18.3276C27.0095 18.3276 27.7495 18.9519 27.7495 19.7206C27.7495 20.4893 27.0144 21.1152 26.0399 21.1152C25.0653 21.1152 24.3335 20.4925 24.3335 19.7206ZM29.5764 19.454H28.8479V20.166H29.5764V20.6615H28.8479V22.8962H28.8463C28.8397 23.6534 28.0227 24.2703 26.9947 24.2703C25.9668 24.2703 25.1498 23.6534 25.144 22.8962C25.1498 22.1382 25.9677 21.5229 26.9947 21.5229C27.3614 21.5229 27.7019 21.6017 27.9882 21.7378V18.2308H28.8488V18.9576H29.5772V19.454H29.5764Z" fill="white"/>
<path d="M23.0865 1.26425C11.0847 1.21667 1.31421 10.9092 1.26581 22.9143C1.21987 34.9187 10.9132 44.6875 22.9151 44.7351C34.9178 44.7827 44.6882 35.0909 44.735 23.0858C44.7834 11.0807 35.0892 1.31101 23.0865 1.26343M43.0762 20.0086L41.3986 20.6715L41.4002 20.6838L43.1821 20.8766L43.242 21.6313L40.8416 21.0702L39.3748 21.2548L39.2796 20.5197L40.7218 20.3409L42.9474 19.226L43.0771 20.0086H43.0762ZM41.3502 26.2319C41.3445 26.8234 40.9663 27.2975 40.9663 27.2975C40.9663 27.2975 40.5963 26.816 40.6029 26.2245C40.6111 25.6338 40.9892 25.158 40.9892 25.158C40.9892 25.158 41.3568 25.6429 41.3502 26.2327M40.3051 29.3533C40.3051 29.3533 39.6783 28.7397 39.4724 27.8488C39.2673 26.9595 39.5085 26.3393 39.5085 26.3393C39.5085 26.3393 40.1476 26.8299 40.3535 27.7217C40.5618 28.6093 40.3051 29.3533 40.3051 29.3533ZM39.0073 31.9777C39.0073 31.9777 38.4945 31.2631 38.4478 30.3517C38.4002 29.4395 38.7439 28.871 38.7439 28.871C38.7439 28.871 39.2903 29.4641 39.3379 30.3755C39.3871 31.2902 39.0073 31.9777 39.0073 31.9777ZM42.7284 18.1981L42.0754 18.3991L41.8998 17.7461L38.8867 18.6723L38.6693 17.9668L41.6824 17.0414L41.4692 16.4048L42.1222 16.2063L42.7292 18.1989L42.7284 18.1981ZM41.5897 14.8863L38.1303 16.4991L37.8202 15.8289L41.2797 14.2185L41.5897 14.8871V14.8863ZM22.9413 38.1689C14.5655 38.1361 7.79915 31.3173 7.83279 22.9406C7.8656 14.5639 14.6844 7.79841 23.0619 7.83204C31.437 7.86486 38.2 14.6845 38.1664 23.0612C38.1344 31.4371 31.3164 38.2026 22.9413 38.1689ZM34.2459 37.0139C33.8849 37.8711 33.2352 38.3379 33.2352 38.3379C33.2352 38.3379 33.081 37.4569 33.4378 36.5955C33.7947 35.7398 34.3624 35.3682 34.3624 35.3682C34.3624 35.3682 34.6019 36.1558 34.2459 37.0139ZM31.9678 38.4766C31.428 39.2346 30.6872 39.5406 30.6872 39.5406C30.6872 39.5406 30.7364 38.6472 31.2778 37.8908C31.8184 37.1361 32.4567 36.9039 32.4567 36.9039C32.4567 36.9039 32.5125 37.7235 31.9686 38.4766M15.4515 39.5406C15.4515 39.5406 14.7099 39.2354 14.1684 38.4766C13.6262 37.7235 13.6811 36.9039 13.6811 36.9039C13.6811 36.9039 14.3185 37.1353 14.86 37.8908C15.4039 38.6464 15.4515 39.5406 15.4515 39.5406ZM12.9026 38.3371C12.9026 38.3371 12.2529 37.8711 11.8927 37.013C11.5359 36.1549 11.7754 35.3674 11.7754 35.3674C11.7754 35.3674 12.3439 35.7398 12.7016 36.5947C13.0585 37.456 12.9034 38.3371 12.9034 38.3371M38.6594 11.9314C39.1721 11.6016 39.817 11.668 40.2485 12.3358C40.3805 12.545 40.4536 12.7805 40.4568 12.9125L39.8588 13.1562C39.8571 13.0315 39.8211 12.86 39.7046 12.6795C39.5339 12.4138 39.2911 12.3891 39.1205 12.4999C38.931 12.6213 38.8916 12.7813 38.9064 13.262C38.9219 13.8477 38.7004 14.2112 38.3641 14.4277C37.7808 14.8026 37.1196 14.6189 36.716 13.9938C36.5527 13.7386 36.4559 13.4441 36.451 13.3014L37.045 13.0462C37.0556 13.2193 37.1442 13.4704 37.2599 13.6492C37.4478 13.9445 37.6922 13.9905 37.9006 13.8551C38.1319 13.7042 38.1541 13.4901 38.1549 13.1078C38.1393 12.4999 38.369 12.1176 38.6586 11.9314M37.8251 9.15364C38.0999 9.45061 38.2894 9.76563 38.2935 10.1012C38.2993 10.4096 38.159 10.6336 37.9186 10.8559C37.62 11.1332 37.2189 11.2374 36.8218 11.0757L36.8136 11.0823C36.917 11.3424 36.8259 11.6016 36.579 11.9322C36.3189 12.2735 36.0269 12.7181 35.9703 12.8633L35.4633 12.2456C35.5109 12.1406 35.734 11.8182 36.0023 11.4925C36.3017 11.1192 36.3198 10.9404 36.1524 10.7591L36.0794 10.682L34.9694 11.7132L34.442 11.1931L37.2542 8.58267C37.4223 8.74592 37.6348 8.94691 37.8251 9.15364ZM35.88 7.31358L35.4805 7.83861L34.7529 7.28979L34.227 7.98709L34.9194 8.51048L34.5511 9.00024L33.8579 8.47767L33.2401 9.29638L34.0228 9.88704L33.6265 10.4178L32.2549 9.38334L34.5634 6.32012L35.8809 7.3144L35.88 7.31358ZM31.0908 4.38489L31.8332 4.71878L30.8873 7.59332L30.898 7.59742L32.6585 5.14373L33.3591 5.54734L30.8463 8.52689L30.1162 8.1528L31.09 4.38407L31.0908 4.38489ZM29.1392 3.6556L29.8389 3.8935L28.6059 7.52195L27.907 7.28322L29.1383 3.65642L29.1392 3.6556ZM25.2638 2.83195L25.9217 2.91481L26.4722 5.65563L26.4828 5.65727L26.8446 3.06904L27.4845 3.20276L26.8405 6.98461L26.1834 6.84761L25.6658 4.11089L25.6551 4.10843L25.2646 6.686L24.6165 6.61053L25.263 2.83031L25.2638 2.83195ZM21.9438 2.73023L22.0266 5.20689C22.0463 5.76474 22.2219 5.92799 22.4122 5.92143C22.6263 5.91404 22.774 5.75654 22.7543 5.18228L22.6657 2.7089L23.4081 2.71382L23.4869 5.02888C23.5197 6.00264 23.171 6.5449 22.4393 6.56951C21.6452 6.5974 21.317 6.06171 21.2834 5.11009L21.2038 2.78683L21.9421 2.73105L21.9438 2.73023ZM17.2161 3.52434C17.4901 3.4382 17.7107 3.42589 17.842 3.44312L17.9125 4.08875C17.7952 4.07316 17.6525 4.08382 17.4736 4.14043C16.997 4.29466 16.7206 4.74339 17.0224 5.68845C17.3014 6.55803 17.7394 6.75983 18.0668 6.65483C18.1316 6.63432 18.1767 6.61299 18.2013 6.59494L17.9207 5.72044L17.5992 5.8238L17.4138 5.24873L18.3859 4.93618L19.0044 6.86976C18.8707 6.98379 18.5582 7.15525 18.2956 7.23892C17.8814 7.37182 17.5319 7.35295 17.2136 7.18888C16.8075 6.98789 16.4671 6.50552 16.2784 5.87877C15.8731 4.55963 16.449 3.77127 17.2161 3.52434ZM12.773 5.47023L14.0175 6.49732C14.2578 6.69995 14.6557 7.03219 14.91 7.27092L14.9199 7.26682C14.7066 6.92719 14.3423 6.37345 14.0035 5.76392L13.5917 5.01739L14.1709 4.72288L16.038 8.08389L15.4334 8.37758L14.207 7.38331C13.9412 7.16263 13.5573 6.82792 13.3169 6.56869L13.3062 6.57443C13.5072 6.90176 13.8148 7.40053 14.1873 8.07077L14.6106 8.83534L14.0544 9.17661L12.1938 5.81888L12.7713 5.46941L12.773 5.47023ZM10.2857 7.18724L13.3653 9.65488L12.782 10.0987L12.0806 9.5228L11.5597 9.96334L12.006 10.755L11.476 11.2513L9.61215 7.75739L10.2865 7.18724H10.2857ZM7.29299 10.1537L8.17488 10.5532C8.40458 10.659 8.66545 10.7862 8.9173 10.9256L8.92304 10.9174C8.74338 10.7033 8.57275 10.4769 8.4095 10.2505L7.86314 9.48917L8.37832 8.93297L9.58918 11.0675L10.7295 12.0364L10.2487 12.5983L9.13306 11.6484L6.8057 10.7665L7.29299 10.1553V10.1537ZM5.18385 13.2776L7.96979 13.7173L7.97553 13.7083L5.65555 12.4695L6.00174 11.9158L9.33568 13.8207L8.9657 14.3933L6.26836 13.97L6.23637 13.9552L8.50384 15.1997L8.21015 15.783L4.87129 13.8715L5.18221 13.2784L5.18385 13.2776ZM3.94182 16.034L7.84837 16.5623L7.59078 17.2358L6.71628 17.1119L6.49724 17.7584L7.26592 18.1956L7.06329 18.8971L3.66372 16.847L3.94264 16.034H3.94182ZM7.69168 30.3517C7.64246 31.2631 7.13138 31.9777 7.13138 31.9777C7.13138 31.9777 6.75237 31.2902 6.79831 30.3755C6.84836 29.4641 7.39471 28.871 7.39471 28.871C7.39471 28.871 7.73762 29.4395 7.69086 30.3517M2.8491 20.6822L4.38564 20.8823L4.48572 20.1177L2.9377 19.9176L3.07388 19.1858L6.87789 19.6838L6.74253 20.4164L5.1658 20.208L5.06571 20.9734L6.6408 21.1826L6.58256 21.9135L2.77691 21.4147L2.84746 20.683L2.8491 20.6822ZM6.66624 27.8488C6.45951 28.7397 5.83193 29.3533 5.83193 29.3533C5.83193 29.3533 5.5768 28.6093 5.78353 27.7217C5.9878 26.8307 6.62932 26.3393 6.62932 26.3393C6.62932 26.3393 6.8705 26.9595 6.66624 27.8488ZM5.53742 26.2245C5.54316 26.816 5.17318 27.2975 5.17318 27.2975C5.17318 27.2975 4.79582 26.8234 4.78761 26.2319C4.78187 25.6429 5.14939 25.1572 5.14939 25.1572C5.14939 25.1572 5.5284 25.6338 5.5366 26.2237M3.01564 26.6437C3.01564 26.6437 3.98202 26.8152 4.69491 27.6216C5.40698 28.4288 5.55465 29.4625 5.55465 29.4625C5.55465 29.4625 4.54725 29.1909 3.83353 28.3845C3.119 27.5781 3.01482 26.6437 3.01482 26.6437M3.8844 29.8185C3.8844 29.8185 4.86801 29.8185 5.71052 30.4879C6.55221 31.1598 6.87707 32.1541 6.87707 32.1541C6.87707 32.1541 5.83603 32.0589 4.9927 31.3878C4.15101 30.7184 3.8844 29.8185 3.8844 29.8185ZM8.88121 35.3576C8.79917 35.9285 8.42755 36.5643 8.09038 36.5151C7.75075 36.4675 7.57355 35.7522 7.65395 35.1804C7.69661 34.9064 7.79259 34.6676 7.92221 34.4962C7.72368 34.5733 7.46444 34.5995 7.19209 34.561C6.61947 34.479 5.98124 34.1057 6.03128 33.7685C6.0805 33.4322 6.79585 33.2558 7.36764 33.337C7.64246 33.3764 7.88201 33.474 8.05018 33.602C7.97553 33.4035 7.94682 33.1459 7.98701 32.8719C8.06987 32.2993 8.44067 31.6618 8.77866 31.7111C9.11665 31.7603 9.29467 32.4756 9.21181 33.0482C9.17243 33.3222 9.07481 33.5618 8.94437 33.7316C9.14536 33.6553 9.40213 33.6291 9.67613 33.6701C10.2479 33.7505 10.8853 34.1213 10.8386 34.4593C10.7885 34.7973 10.0732 34.9761 9.49976 34.8916C9.22658 34.853 8.98621 34.7554 8.81722 34.6258C8.89351 34.8268 8.91976 35.0844 8.88121 35.3592M10.736 38.6825C9.74422 38.4544 9.15192 37.7989 9.15192 37.7989C9.15192 37.7989 9.98787 37.397 10.9764 37.6217C11.9666 37.8498 12.6491 38.5627 12.6491 38.5627C12.6491 38.5627 11.7246 38.9081 10.736 38.6817M13.5162 40.3773C12.5474 40.3806 11.855 39.8991 11.855 39.8991C11.855 39.8991 12.5441 39.3461 13.5113 39.3445C14.4802 39.3396 15.2669 39.8548 15.2669 39.8548C15.2669 39.8548 14.4818 40.3757 13.5154 40.3773M18.7862 40.7301C18.5442 40.8499 18.2973 40.904 18.0865 40.8942C18.2587 41.0131 18.4236 41.2051 18.5426 41.4479C18.7936 41.9573 18.8469 42.6752 18.5475 42.8212C18.2472 42.9713 17.7075 42.4906 17.4589 41.9852C17.3383 41.7408 17.2858 41.4922 17.2956 41.2847C17.1759 41.4553 16.9847 41.621 16.7394 41.74C16.2324 41.9893 15.5146 42.0418 15.3653 41.7424C15.2185 41.4438 15.6967 40.9048 16.2054 40.6538C16.4482 40.5332 16.6959 40.4832 16.9051 40.4922C16.7337 40.3716 16.5704 40.1813 16.4482 39.9376C16.1988 39.4306 16.1463 38.7104 16.4466 38.5627C16.7468 38.4142 17.2833 38.8933 17.5352 39.4027C17.6549 39.6448 17.7083 39.8925 17.6976 40.1009C17.8166 39.9319 18.0077 39.7645 18.253 39.6456C18.7608 39.3962 19.4811 39.3437 19.6287 39.6423C19.7764 39.9434 19.2957 40.4823 18.7879 40.7309M23.0012 42.4627C22.5763 42.4627 22.2317 42.119 22.2317 41.6932C22.2317 41.2674 22.5763 40.9253 23.0012 40.9253C23.4262 40.9253 23.7699 41.2691 23.7699 41.6932C23.7699 42.1173 23.4254 42.4627 23.0012 42.4627ZM30.7733 41.7416C30.6256 42.041 29.9046 41.9885 29.4 41.7391C29.1556 41.6202 28.9628 41.4545 28.8438 41.2838C28.8537 41.4922 28.7995 41.74 28.6789 41.9844C28.4312 42.4898 27.8914 42.9713 27.5928 42.8204C27.2917 42.6743 27.3458 41.9557 27.5969 41.4471C27.7158 41.2043 27.8807 41.0123 28.0514 40.8933C27.8422 40.9032 27.5961 40.849 27.3516 40.7293C26.8438 40.4799 26.3631 39.9417 26.5132 39.6407C26.6592 39.3412 27.3803 39.3937 27.8881 39.6439C28.1309 39.7629 28.3237 39.9294 28.4435 40.0992C28.432 39.8909 28.4861 39.6439 28.6067 39.4011C28.857 38.8917 29.3959 38.4134 29.6945 38.5611C29.9948 38.7087 29.9406 39.429 29.6913 39.936C29.5707 40.1796 29.4074 40.37 29.236 40.4905C29.4452 40.4815 29.6929 40.5316 29.9349 40.6522C30.4443 40.9032 30.9226 41.443 30.775 41.7408M32.6224 40.3773C31.656 40.3757 30.8718 39.8548 30.8718 39.8548C30.8718 39.8548 31.6585 39.3396 32.6273 39.3445C33.5953 39.3461 34.2845 39.8991 34.2845 39.8991C34.2845 39.8991 33.5912 40.3814 32.6224 40.3773ZM35.4026 38.6825C34.4141 38.9081 33.4895 38.5635 33.4895 38.5635C33.4895 38.5635 34.1721 37.8498 35.1622 37.6226C36.1491 37.3978 36.9867 37.7998 36.9867 37.7998C36.9867 37.7998 36.3928 38.4552 35.4026 38.6833M38.9441 34.5602C38.6726 34.5987 38.415 34.5725 38.2148 34.4954C38.3444 34.6668 38.4428 34.9055 38.4822 35.1795C38.5643 35.7513 38.3871 36.4667 38.0499 36.5143C37.7103 36.5635 37.3395 35.9277 37.2583 35.3567C37.2189 35.0819 37.2459 34.8243 37.3222 34.6233C37.1516 34.753 36.9121 34.8514 36.6381 34.8891C36.0646 34.9736 35.3493 34.7956 35.3009 34.4568C35.2525 34.1188 35.8899 33.748 36.4633 33.6676C36.7365 33.6274 36.9941 33.6529 37.1943 33.7291C37.0638 33.5593 36.9662 33.3206 36.9268 33.0458C36.844 32.474 37.0212 31.7578 37.36 31.7086C37.698 31.6594 38.0679 32.2968 38.1516 32.8694C38.191 33.1434 38.1623 33.4018 38.0876 33.5995C38.2566 33.4716 38.4954 33.3731 38.7702 33.3346C39.342 33.2525 40.059 33.4289 40.1065 33.7661C40.1566 34.1032 39.5183 34.4773 38.9441 34.5585M41.1443 31.3878C40.3026 32.0589 39.2607 32.1541 39.2607 32.1541C39.2607 32.1541 39.5864 31.1598 40.4273 30.4879C41.2714 29.8185 42.2534 29.8185 42.2534 29.8185C42.2534 29.8185 41.9884 30.7184 41.1435 31.3878M42.3059 28.3837C41.5922 29.1901 40.5832 29.4616 40.5832 29.4616C40.5832 29.4616 40.73 28.428 41.4421 27.6208C42.1566 26.8143 43.1246 26.6429 43.1246 26.6429C43.1246 26.6429 43.018 27.5773 42.3059 28.3837ZM17.2243 40.1427C16.9224 40.292 16.7969 40.6595 16.9445 40.9631C17.0971 41.2666 17.4638 41.3888 17.7665 41.2387C18.0692 41.0919 18.1939 40.7227 18.0446 40.4225C17.8953 40.1181 17.5303 39.9942 17.2243 40.1427ZM9.05266 34.2025C9.10106 33.8612 8.86316 33.5454 8.52353 33.4937C8.18144 33.4453 7.86314 33.6832 7.8172 34.0253C7.76634 34.3666 8.0026 34.6832 8.34551 34.7333C8.6876 34.7825 9.00426 34.5446 9.05266 34.2017M4.50049 16.696L4.49392 16.7116C4.72198 16.8306 5.0772 17.011 5.27409 17.1193L5.97549 17.5049L6.14859 16.993L5.35612 16.856C5.1256 16.8199 4.75152 16.7461 4.50049 16.6968M28.9136 40.1427C28.6092 39.9934 28.2425 40.1181 28.0932 40.4225C27.9439 40.7227 28.0702 41.0927 28.3738 41.2387C28.6757 41.3897 29.0432 41.2666 29.1941 40.9631C29.3426 40.6587 29.2171 40.292 28.9144 40.1427M11.0494 8.60236C10.8706 8.45059 10.5884 8.19628 10.3989 8.02319L10.3849 8.03467C10.5178 8.25371 10.7295 8.5917 10.8419 8.78448L11.2438 9.47768L11.6573 9.12903L11.0502 8.60236H11.0494ZM37.6151 33.4937C37.2755 33.5454 37.0368 33.8612 37.086 34.2025C37.1352 34.5446 37.451 34.7825 37.7923 34.7341C38.1352 34.684 38.3723 34.3666 38.3223 34.0261C38.2739 33.684 37.9564 33.4461 37.6151 33.4945M37.3641 10.3579C37.5987 10.1389 37.6799 9.88704 37.4617 9.63519C37.419 9.58925 37.3649 9.53921 37.3272 9.52116L36.4953 10.2939L36.5847 10.3883C36.803 10.6237 37.1188 10.5843 37.3641 10.3579Z" fill="white"/>
<path d="M19.9643 31.6699L20.0258 31.7052C20.0258 31.7249 20.0291 31.7454 20.0348 31.7725C20.0389 31.7987 20.0488 31.8234 20.0619 31.8422C20.0963 31.8914 20.1431 31.9349 20.2005 31.9702C20.2604 32.0063 20.3219 32.0366 20.39 32.0588C20.4557 32.0818 20.5254 32.1006 20.5927 32.108C20.6616 32.1179 20.7247 32.1236 20.7789 32.1236C21.3146 32.1236 21.6001 31.8209 21.6362 31.2196C21.4901 31.3 21.3457 31.3689 21.2014 31.4271C21.0553 31.4845 20.9052 31.5124 20.7469 31.5124C20.6222 31.5124 20.4959 31.4944 20.3638 31.4616C20.2333 31.4263 20.1144 31.3746 20.0102 31.3008C19.9052 31.2286 19.8182 31.1334 19.7526 31.0202C19.6862 30.9062 19.6517 30.7684 19.6517 30.6068C19.6517 30.4132 19.6903 30.2458 19.769 30.1088C19.8437 29.971 19.9454 29.8578 20.0701 29.7675C20.1931 29.6773 20.3326 29.6133 20.4852 29.5706C20.6394 29.5272 20.7904 29.5083 20.9421 29.5083C21.1316 29.5083 21.3039 29.5428 21.4614 29.6141C21.6173 29.6839 21.7535 29.7839 21.8667 29.9119C21.9799 30.0399 22.0685 30.1917 22.1284 30.3672C22.1915 30.5428 22.2235 30.7364 22.2235 30.9472C22.2235 31.1966 22.1874 31.4214 22.1177 31.6199C22.048 31.8209 21.9471 31.9932 21.8175 32.1359C21.6854 32.2803 21.532 32.3878 21.3507 32.4632C21.171 32.5362 20.9659 32.5748 20.7444 32.5748C20.591 32.5748 20.4573 32.5617 20.3506 32.5379C20.2415 32.5116 20.1505 32.4829 20.0791 32.4452C20.0069 32.4099 19.9479 32.3779 19.9044 32.3492C19.8593 32.3205 19.8215 32.3057 19.7944 32.3057C19.7583 32.3057 19.7239 32.318 19.6976 32.341L19.6558 32.3L19.9651 31.6716L19.9643 31.6699ZM20.6525 30.0276C20.573 30.044 20.5032 30.0727 20.4401 30.1129C20.3794 30.1515 20.3293 30.2056 20.2924 30.2721C20.2563 30.3385 20.2383 30.4214 20.2383 30.5206C20.2383 30.6199 20.2563 30.7019 20.2924 30.7692C20.3293 30.8356 20.3794 30.8873 20.4401 30.9292C20.5032 30.9677 20.573 30.9964 20.6525 31.0145C20.7321 31.0309 20.8125 31.0399 20.8954 31.0399C20.9782 31.0399 21.0562 31.0309 21.1374 31.0145C21.2169 30.9964 21.2867 30.9677 21.349 30.9292C21.4114 30.8881 21.4606 30.8365 21.4975 30.7692C21.532 30.7019 21.5492 30.6191 21.5492 30.5206C21.5492 30.4222 21.532 30.3385 21.4975 30.2721C21.4606 30.2056 21.4114 30.1515 21.349 30.1129C21.2875 30.0727 21.2169 30.044 21.1374 30.0276C21.0562 30.0112 20.9782 30.0005 20.8954 30.0005C20.8125 30.0005 20.7321 30.0104 20.6525 30.0276Z" fill="white"/>
<path d="M25.5591 31.6699L25.6206 31.7052C25.6206 31.7249 25.6247 31.7454 25.6305 31.7725C25.6346 31.7987 25.6428 31.8234 25.6567 31.8422C25.6928 31.8914 25.7379 31.9349 25.797 31.9702C25.8544 32.0063 25.9176 32.0366 25.9849 32.0588C26.0513 32.0818 26.1202 32.1006 26.1891 32.108C26.2572 32.1179 26.3204 32.1236 26.3745 32.1236C26.9111 32.1236 27.1957 31.8209 27.2318 31.2196C27.0874 31.3 26.9414 31.3689 26.7978 31.4271C26.6535 31.4845 26.5009 31.5124 26.3434 31.5124C26.2203 31.5124 26.0915 31.4944 25.9603 31.4616C25.829 31.4263 25.7101 31.3746 25.6059 31.3008C25.5009 31.2286 25.4147 31.1334 25.3475 31.0202C25.2818 30.9062 25.2474 30.7684 25.2474 30.6068C25.2474 30.4132 25.2867 30.2458 25.3647 30.1088C25.441 29.971 25.5419 29.8578 25.6657 29.7675C25.7904 29.6773 25.9291 29.6133 26.0817 29.5706C26.2343 29.5272 26.3877 29.5083 26.537 29.5083C26.7265 29.5083 26.8987 29.5428 27.0563 29.6141C27.2138 29.6839 27.3508 29.7839 27.4623 29.9119C27.5755 30.0399 27.6633 30.1917 27.7249 30.3672C27.7864 30.5428 27.8176 30.7364 27.8176 30.9472C27.8176 31.1966 27.7839 31.4214 27.7117 31.6199C27.6428 31.8209 27.5419 31.9932 27.4115 32.1359C27.2802 32.2803 27.126 32.3878 26.9455 32.4632C26.765 32.5362 26.5624 32.5748 26.3393 32.5748C26.185 32.5748 26.0521 32.5617 25.9455 32.5379C25.8364 32.5116 25.7453 32.4829 25.6731 32.4452C25.6009 32.4099 25.5427 32.3779 25.4992 32.3492C25.4525 32.3205 25.4172 32.3057 25.3893 32.3057C25.3524 32.3057 25.3196 32.318 25.2917 32.341L25.2515 32.3L25.5607 31.6716L25.5591 31.6699ZM26.2474 30.0276C26.1678 30.044 26.0964 30.0727 26.0341 30.1129C25.9742 30.1515 25.9242 30.2056 25.8872 30.2721C25.8528 30.3385 25.8331 30.4214 25.8331 30.5206C25.8331 30.6199 25.8528 30.7019 25.8872 30.7692C25.9242 30.8356 25.9742 30.8873 26.0341 30.9292C26.0964 30.9677 26.167 30.9964 26.2474 31.0145C26.327 31.0309 26.4065 31.0399 26.491 31.0399C26.5755 31.0399 26.6526 31.0309 26.7322 31.0145C26.8118 30.9964 26.8823 30.9677 26.9455 30.9292C27.007 30.8881 27.0554 30.8365 27.0932 30.7692C27.1285 30.7019 27.1465 30.6191 27.1465 30.5206C27.1465 30.4222 27.1293 30.3385 27.0932 30.2721C27.0554 30.2056 27.007 30.1515 26.9455 30.1129C26.8823 30.0727 26.8118 30.044 26.7322 30.0276C26.6518 30.0112 26.5739 30.0005 26.491 30.0005C26.4082 30.0005 26.327 30.0104 26.2474 30.0276Z" fill="white"/>
<path d="M22.4376 29.9561L22.4992 29.9045C22.5262 29.9225 22.5558 29.9315 22.5861 29.9315C22.6058 29.9315 22.6345 29.9102 22.6829 29.8659C22.7289 29.8216 22.7969 29.774 22.8864 29.7199C22.975 29.6641 23.089 29.6165 23.2293 29.5739C23.3696 29.5287 23.5377 29.5066 23.7379 29.5066C23.8724 29.5066 24.0053 29.5205 24.1415 29.5501C24.2777 29.5812 24.3991 29.6305 24.509 29.6986C24.6206 29.765 24.7133 29.8495 24.7822 29.9553C24.8528 30.0603 24.8872 30.1875 24.8872 30.3352C24.8872 30.4746 24.8528 30.6001 24.7789 30.7158C24.7067 30.8339 24.6075 30.9061 24.4836 30.9381V30.9496C24.6296 30.9857 24.7502 31.0628 24.8454 31.176C24.9397 31.2892 24.9873 31.4312 24.9873 31.6034C24.9873 31.7979 24.943 31.9595 24.856 32.085C24.7683 32.2121 24.6575 32.3122 24.5295 32.3861C24.3991 32.4615 24.2547 32.5099 24.0997 32.5345C23.9454 32.56 23.7978 32.5731 23.6616 32.5731C23.5057 32.5731 23.3614 32.5559 23.2276 32.5239C23.0923 32.4935 22.975 32.4533 22.8724 32.4107C22.7699 32.3672 22.6837 32.3278 22.6173 32.2901C22.55 32.2548 22.5008 32.2367 22.4745 32.2367C22.4581 32.2367 22.4425 32.24 22.4302 32.2491C22.4188 32.2556 22.4065 32.263 22.3917 32.2696L22.3449 32.254L22.6444 31.4303L22.7018 31.4623C22.6993 31.4714 22.696 31.4837 22.696 31.5042V31.5435C22.696 31.6313 22.7346 31.7109 22.8109 31.779C22.8864 31.8495 22.975 31.9078 23.08 31.9545C23.185 32.0021 23.2965 32.0382 23.4106 32.0653C23.5271 32.0883 23.6239 32.1022 23.7018 32.1022C23.7641 32.1022 23.838 32.0956 23.9217 32.0817C24.0045 32.0678 24.0857 32.0431 24.1571 32.0087C24.2301 31.9742 24.2925 31.9283 24.3441 31.87C24.395 31.8085 24.4229 31.7306 24.4229 31.6354C24.4229 31.5403 24.3975 31.4689 24.3491 31.4147C24.299 31.3565 24.2391 31.3155 24.1678 31.2835C24.0964 31.254 24.0209 31.2334 23.9397 31.2236C23.8593 31.2138 23.7904 31.2088 23.7322 31.2088C23.6485 31.2088 23.5779 31.2162 23.5164 31.2351C23.4565 31.2523 23.4163 31.295 23.3958 31.3639H23.3343V30.5845H23.3958C23.4024 30.6608 23.4401 30.7125 23.5057 30.7355C23.573 30.7626 23.6477 30.774 23.7313 30.774C23.7855 30.774 23.8503 30.7691 23.9225 30.7568C23.9938 30.7462 24.0611 30.7248 24.1243 30.6945C24.1866 30.6633 24.2408 30.6206 24.2843 30.5681C24.3286 30.5156 24.3515 30.4467 24.3515 30.3688C24.3515 30.2909 24.3318 30.231 24.2916 30.1826C24.2531 30.135 24.203 30.0989 24.1391 30.0726C24.0751 30.0456 24.0062 30.0267 23.9274 30.0177C23.8511 30.0087 23.7732 30.0029 23.6936 30.0029C23.6009 30.0029 23.5066 30.0152 23.4097 30.0398C23.3129 30.0595 23.2252 30.0907 23.1464 30.1301C23.0677 30.1662 23.0029 30.2105 22.9512 30.2556C22.8978 30.3015 22.8732 30.3475 22.8732 30.3926C22.8732 30.4098 22.8757 30.427 22.8782 30.4467C22.8823 30.4697 22.8872 30.4902 22.8937 30.5083L22.8486 30.5435L22.4352 29.9578L22.4376 29.9561Z" fill="white"/>
<path d="M18.4531 32.4895C18.4884 32.4895 18.518 32.4797 18.5442 32.4567C18.5696 32.437 18.5836 32.3943 18.5836 32.3279V30.4124C18.5573 30.4124 18.5303 30.4124 18.4983 30.4181C18.4646 30.4206 18.4335 30.4271 18.4023 30.437C18.3703 30.4468 18.3432 30.4599 18.317 30.4772C18.2907 30.4944 18.2735 30.5174 18.2636 30.5494H18.2021V29.8274H18.2636C18.2636 29.8611 18.2792 29.8849 18.3104 29.8972C18.3432 29.9119 18.3703 29.9185 18.3982 29.9185C18.4564 29.9185 18.5065 29.8972 18.5458 29.857C18.5869 29.8184 18.6057 29.7692 18.6057 29.7109C18.6057 29.6576 18.5951 29.6232 18.5729 29.6092C18.5499 29.5936 18.5204 29.5805 18.4819 29.5731V29.5059H19.3137V29.5731C19.2743 29.5805 19.2382 29.5961 19.2103 29.6133C19.1841 29.633 19.1701 29.6609 19.1701 29.6995V32.3271C19.1701 32.3935 19.1849 32.4354 19.2103 32.4559C19.2382 32.4788 19.2694 32.4887 19.3039 32.4887V32.5568H18.4523V32.4887L18.4531 32.4895Z" fill="white"/>
</svg>
