<svg width="23" height="22" viewBox="0 0 23 22" fill="none" xmlns="http://www.w3.org/2000/svg">
<path d="M20.0211 7.48623L19.6364 7.27013C19.5767 7.23657 19.5473 7.21974 19.5184 7.20228C19.2316 7.02877 18.9898 6.78903 18.8134 6.50221C18.7956 6.47334 18.7789 6.44308 18.7447 6.38326C18.7105 6.32352 18.6932 6.29325 18.6773 6.26328C18.519 5.96488 18.4334 5.63234 18.4283 5.29388C18.4278 5.25985 18.4279 5.22508 18.4291 5.15596L18.4366 4.70488C18.4486 3.98304 18.4546 3.621 18.3542 3.29608C18.2649 3.00748 18.1157 2.74166 17.9163 2.51607C17.691 2.26107 17.3791 2.07915 16.7546 1.71578L16.2359 1.41394C15.6132 1.05158 15.3017 0.87033 14.9711 0.801235C14.6786 0.740106 14.3768 0.742939 14.0854 0.809003C13.7564 0.883567 13.4489 1.06954 12.8341 1.44126L12.8306 1.44294L12.459 1.66767C12.4002 1.7032 12.3704 1.72111 12.341 1.73765C12.0487 1.90176 11.7224 1.99251 11.3881 2.00334C11.3544 2.00443 11.3201 2.00443 11.2516 2.00443C11.1835 2.00443 11.1478 2.00443 11.1141 2.00334C10.7791 1.99246 10.4522 1.90122 10.1594 1.73643C10.1299 1.71982 10.1007 1.70177 10.0418 1.66607L9.66778 1.43932C9.04881 1.06407 8.73885 0.87617 8.40811 0.801235C8.1155 0.734938 7.81263 0.733103 7.51908 0.795019C7.18762 0.864929 6.87608 1.04752 6.253 1.4127L6.25022 1.41394L5.73798 1.71416L5.73231 1.71766C5.11484 2.07955 4.80535 2.26093 4.58192 2.51489C4.38364 2.74025 4.23544 3.00566 4.14673 3.29349C4.04646 3.61885 4.05181 3.98167 4.06389 4.70691L4.0714 5.15736C4.07253 5.22557 4.0745 5.25946 4.07401 5.29301C4.06904 5.63217 3.9823 5.96539 3.82357 6.26432C3.80787 6.29388 3.79096 6.32345 3.75718 6.3825C3.72338 6.44159 3.70701 6.47098 3.68948 6.4995C3.51225 6.78785 3.26937 7.02899 2.98071 7.2028C2.95216 7.21999 2.92206 7.23653 2.86294 7.26961L2.48315 7.48214C1.85126 7.83575 1.53539 8.01271 1.30554 8.26454C1.10221 8.48732 0.948609 8.75157 0.854848 9.03937C0.74886 9.36469 0.748949 9.72948 0.75059 10.459L0.751931 11.0553C0.753561 11.7799 0.755797 12.142 0.862022 12.4651C0.955998 12.751 1.10848 13.0136 1.31067 13.2351C1.53922 13.4854 1.85195 13.6612 2.47905 14.0135L2.85545 14.225C2.91951 14.261 2.95174 14.2787 2.98264 14.2975C3.26868 14.4714 3.50965 14.7119 3.68537 14.9986C3.70436 15.0296 3.72258 15.0617 3.75902 15.126C3.79502 15.1895 3.81343 15.2213 3.83008 15.2531C3.98414 15.5476 4.06663 15.8749 4.07225 16.208C4.07286 16.244 4.07234 16.2804 4.07112 16.3535L4.06389 16.7858C4.05172 17.5135 4.04642 17.8778 4.14728 18.2041C4.23651 18.4927 4.38564 18.7585 4.58499 18.9841C4.81033 19.2391 5.12272 19.4209 5.74721 19.7843L6.2658 20.086C6.88854 20.4484 7.1998 20.6294 7.5304 20.6985C7.82289 20.7597 8.12489 20.7573 8.41632 20.6912C8.7457 20.6165 9.05433 20.4299 9.67086 20.0571L10.0425 19.8324C10.1013 19.7969 10.1311 19.779 10.1605 19.7625C10.4529 19.5984 10.7788 19.5072 11.1131 19.4963C11.1468 19.4953 11.1811 19.4953 11.2496 19.4953C11.3183 19.4953 11.3525 19.4953 11.3863 19.4964C11.7213 19.5072 12.0493 19.5987 12.342 19.7635C12.3678 19.778 12.3936 19.7937 12.4389 19.8212L12.834 20.0607C13.4531 20.436 13.7624 20.6234 14.0931 20.6983C14.3857 20.7646 14.6888 20.7673 14.9824 20.7054C15.3138 20.6355 15.6259 20.4525 16.2487 20.0876L16.7686 19.7828C17.3865 19.4207 17.6963 19.2391 17.9198 18.9851C18.1181 18.7597 18.2665 18.4945 18.3552 18.2066C18.4547 17.8836 18.4487 17.5236 18.4368 16.8088L18.4291 16.3426C18.4279 16.2744 18.4278 16.2405 18.4283 16.2069C18.4332 15.8678 18.5186 15.5343 18.6773 15.2354C18.693 15.2059 18.71 15.1761 18.7437 15.1172C18.7775 15.0581 18.795 15.0287 18.8125 15.0002C18.9897 14.7118 19.2329 14.4705 19.5215 14.2967C19.5497 14.2797 19.5788 14.2634 19.6365 14.2311L19.6385 14.2302L20.0182 14.0177C20.6501 13.6641 20.9666 13.4869 21.1965 13.2351C21.3998 13.0123 21.5532 12.7484 21.647 12.4606C21.7523 12.1372 21.7515 11.7745 21.7499 11.0536L21.7485 10.4445C21.7469 9.71985 21.746 9.35782 21.6398 9.0347C21.5458 8.74884 21.3925 8.48614 21.1903 8.26471C20.9619 8.01465 20.6488 7.83873 20.0229 7.48713L20.0211 7.48623Z" stroke="white" stroke-width="1.5" stroke-linecap="round" stroke-linejoin="round"/>
<path d="M7.04894 10.7501C7.04894 13.0933 8.93008 14.9929 11.2506 14.9929C13.5711 14.9929 15.4522 13.0933 15.4522 10.7501C15.4522 8.40681 13.5711 6.50723 11.2506 6.50723C8.93008 6.50723 7.04894 8.40681 7.04894 10.7501Z" stroke="white" stroke-width="1.5" stroke-linecap="round" stroke-linejoin="round"/>
</svg>
