<svg width="149" height="46" viewBox="0 0 149 46" fill="none" xmlns="http://www.w3.org/2000/svg">
<rect width="149" height="46" rx="23" fill="#FEE2E2"/>
<path d="M41.1445 32.7402H39.5117V13.6406H41.1445V32.7402ZM40.1348 22.6211H36.3965V21.2246H40.1348V22.6211ZM36.8477 31.7734H35.2363V14.0488H36.8477V31.7734ZM32.7871 27.6055H25.4824V15.875H32.7871V27.6055ZM27.0723 26.252H31.1973V17.2285H27.0723V26.252ZM61.2539 26.0156H43.7656V24.5977H61.2539V26.0156ZM53.2832 32.7402H51.6289V25.4355H53.2832V32.7402ZM52.4668 14.4141C53.7988 14.4141 54.9733 14.5824 55.9902 14.9189C57.0072 15.2555 57.7949 15.7425 58.3535 16.3799C58.9121 17.0173 59.1914 17.7656 59.1914 18.625C59.1914 19.4557 58.9121 20.1826 58.3535 20.8057C57.7949 21.4287 57.0072 21.9121 55.9902 22.2559C54.9733 22.5996 53.7988 22.7715 52.4668 22.7715C51.1348 22.7715 49.9603 22.5996 48.9434 22.2559C47.9264 21.9121 47.1387 21.4287 46.5801 20.8057C46.0215 20.1826 45.7422 19.4557 45.7422 18.625C45.7422 17.7656 46.0215 17.0173 46.5801 16.3799C47.1387 15.7425 47.9264 15.2555 48.9434 14.9189C49.9603 14.5824 51.1348 14.4141 52.4668 14.4141ZM52.4668 15.7891C51.4785 15.7891 50.6084 15.9036 49.8564 16.1328C49.1045 16.362 48.5208 16.6914 48.1055 17.1211C47.6901 17.5508 47.4824 18.0521 47.4824 18.625C47.4824 19.1836 47.6901 19.6742 48.1055 20.0967C48.5208 20.5192 49.1045 20.8451 49.8564 21.0742C50.6084 21.3034 51.4785 21.418 52.4668 21.418C53.4551 21.418 54.3288 21.3034 55.0879 21.0742C55.847 20.8451 56.4342 20.5192 56.8496 20.0967C57.265 19.6742 57.4727 19.1836 57.4727 18.625C57.4727 18.0521 57.265 17.5508 56.8496 17.1211C56.4342 16.6914 55.847 16.362 55.0879 16.1328C54.3288 15.9036 53.4551 15.7891 52.4668 15.7891ZM77.8398 25.7578H76.1641V22.793H77.8398V25.7578ZM72.3184 15.7891H81.7715V13.9629H83.4473V20.2363H70.6426V13.9629H72.3184V15.7891ZM81.7715 18.9258V17.0781H72.3184V18.9258H81.7715ZM85.7246 23.2227H68.3223V21.8262H85.7246V23.2227ZM83.4902 29.3242H72.1465V31.709H70.4707V28.0781H81.8359V26.3809H70.4277V25.0918H83.4902V29.3242ZM84.0703 32.5254H70.4707V31.1934H84.0703V32.5254ZM94.1035 25.0488H92.4277V22.6211H94.1035V25.0488ZM102.246 26.4668H100.549V13.6621H102.246V26.4668ZM105.104 20.8594H101.537V19.4414H105.104V20.8594ZM87.25 24.5117C88.7826 24.5117 90.179 24.501 91.4395 24.4795C92.6999 24.458 94.0319 24.4007 95.4355 24.3076C96.8392 24.2145 98.1497 24.082 99.3672 23.9102L99.5176 25.1348C97.6986 25.4499 95.8223 25.654 93.8887 25.7471C91.9551 25.8402 89.8066 25.8867 87.4434 25.8867L87.25 24.5117ZM102.246 32.7402H100.549V28.7656H89.5918V27.4121H102.246V32.7402ZM98.7871 16.6914H87.7227V15.4023H98.7871V16.6914ZM93.2441 17.4219C94.1465 17.4219 94.9342 17.5365 95.6074 17.7656C96.2806 17.9948 96.8034 18.3206 97.1758 18.7432C97.5482 19.1657 97.7344 19.6634 97.7344 20.2363C97.7344 20.8092 97.5482 21.3105 97.1758 21.7402C96.8034 22.1699 96.2806 22.5029 95.6074 22.7393C94.9342 22.9756 94.1465 23.0938 93.2441 23.0938C92.3561 23.0938 91.5755 22.9756 90.9023 22.7393C90.2292 22.5029 89.7064 22.1699 89.334 21.7402C88.9616 21.3105 88.7754 20.8092 88.7754 20.2363C88.7754 19.6634 88.9616 19.1657 89.334 18.7432C89.7064 18.3206 90.2292 17.9948 90.9023 17.7656C91.5755 17.5365 92.3561 17.4219 93.2441 17.4219ZM93.2441 18.625C92.6712 18.6107 92.1699 18.668 91.7402 18.7969C91.3105 18.9258 90.9775 19.112 90.7412 19.3555C90.5049 19.599 90.3867 19.8926 90.3867 20.2363C90.3867 20.5658 90.5049 20.8558 90.7412 21.1064C90.9775 21.3571 91.3105 21.5505 91.7402 21.6865C92.1699 21.8226 92.6712 21.8906 93.2441 21.8906C93.8314 21.8906 94.3398 21.8226 94.7695 21.6865C95.1992 21.5505 95.5322 21.3571 95.7686 21.1064C96.0049 20.8558 96.123 20.5658 96.123 20.2363C96.123 19.8926 96.0049 19.599 95.7686 19.3555C95.5322 19.112 95.1992 18.9258 94.7695 18.7969C94.3398 18.668 93.8314 18.6107 93.2441 18.625ZM94.1035 16.0684H92.4277V13.4902H94.1035V16.0684ZM122.098 23.5449H120.443V13.6406H122.098V23.5449ZM122.119 29.0879H111.398V31.752H109.744V27.7773H120.443V25.8652H109.701V24.5117H122.119V29.0879ZM122.807 32.5254H109.744V31.1504H122.807V32.5254ZM112.816 15.6602C112.816 16.8203 112.584 17.916 112.118 18.9473C111.653 19.9785 111.008 20.8737 110.185 21.6328C109.361 22.3919 108.419 22.9648 107.359 23.3516L106.479 22.0195C107.438 21.6758 108.29 21.1852 109.035 20.5479C109.78 19.9105 110.36 19.1657 110.775 18.3135C111.191 17.4613 111.398 16.5768 111.398 15.6602V14.1992H112.816V15.6602ZM113.117 15.6602C113.117 16.5482 113.325 17.3932 113.74 18.1953C114.156 18.9974 114.732 19.6992 115.47 20.3008C116.207 20.9023 117.049 21.3607 117.994 21.6758L117.156 22.9863C116.096 22.6139 115.155 22.0697 114.331 21.3535C113.507 20.6374 112.863 19.7887 112.397 18.8076C111.932 17.8265 111.699 16.7773 111.699 15.6602V14.1992H113.117V15.6602Z" fill="#E32626"/>
</svg>
