<svg width="135" height="49" viewBox="0 0 135 49" fill="none" xmlns="http://www.w3.org/2000/svg">
<rect width="135" height="49" rx="24.5" fill="#DCFCE7"/>
<path d="M40.258 15.806H42.018V35.716H40.258V15.806ZM37.09 23.682H40.918V25.2H37.09V23.682ZM35.836 16.224H37.574V34.704H35.836V16.224ZM25.804 18.116H33.394V30.37H25.804V18.116ZM31.678 19.568H27.52V28.918H31.678V19.568ZM45.3163 27.202H63.3563V28.72H45.3163V27.202ZM53.3903 28.126H55.1943V35.716H53.3903V28.126ZM54.2923 16.598C55.6856 16.598 56.9029 16.7813 57.9443 17.148C58.9856 17.5 59.7996 18.006 60.3863 18.666C60.9729 19.3113 61.2663 20.0813 61.2663 20.976C61.2663 21.856 60.9729 22.626 60.3863 23.286C59.7996 23.946 58.9856 24.452 57.9443 24.804C56.9029 25.156 55.6856 25.332 54.2923 25.332C52.9283 25.332 51.7183 25.156 50.6623 24.804C49.6209 24.452 48.8069 23.946 48.2203 23.286C47.6336 22.626 47.3403 21.856 47.3403 20.976C47.3403 20.0813 47.6336 19.3113 48.2203 18.666C48.8069 18.006 49.6209 17.5 50.6623 17.148C51.7183 16.7813 52.9283 16.598 54.2923 16.598ZM54.2923 18.072C53.2949 18.072 52.4076 18.1893 51.6303 18.424C50.8676 18.6587 50.2736 18.996 49.8483 19.436C49.4229 19.8613 49.2103 20.3673 49.2103 20.954C49.2103 21.5553 49.4229 22.076 49.8483 22.516C50.2736 22.9413 50.8676 23.2713 51.6303 23.506C52.4076 23.7407 53.2949 23.858 54.2923 23.858C55.3189 23.858 56.2136 23.7407 56.9763 23.506C57.7389 23.2713 58.3329 22.9413 58.7583 22.516C59.1836 22.076 59.3963 21.5553 59.3963 20.954C59.3963 20.3673 59.1836 19.8613 58.7583 19.436C58.3329 18.996 57.7389 18.6587 56.9763 18.424C56.2136 18.1893 55.3189 18.072 54.2923 18.072ZM76.8277 25.156H78.6317V27.686H76.8277V25.156ZM85.2097 15.828H87.0357V29.16H85.2097V15.828ZM86.2657 21.834H89.9397V23.352H86.2657V21.834ZM71.7237 28.588L71.5037 27.114C72.6917 27.114 73.9897 27.1067 75.3977 27.092C76.8203 27.0627 78.2723 27.004 79.7537 26.916C81.235 26.828 82.6577 26.6887 84.0217 26.498L84.1537 27.796C82.7457 28.0453 81.301 28.2287 79.8197 28.346C78.353 28.4487 76.923 28.5147 75.5297 28.544C74.151 28.5733 72.8823 28.588 71.7237 28.588ZM73.9457 30.172H87.0357V35.716H85.2097V31.624H73.9457V30.172ZM72.0097 17.61H83.4277V18.996H72.0097V17.61ZM77.7077 19.744C79.1157 19.744 80.2377 20.008 81.0737 20.536C81.9243 21.064 82.3497 21.7827 82.3497 22.692C82.3497 23.6013 81.9243 24.32 81.0737 24.848C80.2377 25.376 79.1157 25.64 77.7077 25.64C76.3143 25.64 75.1923 25.376 74.3417 24.848C73.491 24.32 73.0657 23.6013 73.0657 22.692C73.0657 21.7827 73.491 21.064 74.3417 20.536C75.1923 20.008 76.3143 19.744 77.7077 19.744ZM77.7077 21.02C76.8277 21.02 76.1237 21.1667 75.5957 21.46C75.0677 21.7533 74.8037 22.164 74.8037 22.692C74.8037 23.1907 75.0677 23.6013 75.5957 23.924C76.1237 24.232 76.8277 24.386 77.7077 24.386C78.5877 24.386 79.2917 24.232 79.8197 23.924C80.3477 23.6013 80.6117 23.1907 80.6117 22.692C80.6117 22.164 80.3477 21.7533 79.8197 21.46C79.2917 21.1667 78.5877 21.02 77.7077 21.02ZM76.8277 15.652H78.6317V18.292H76.8277V15.652ZM106.328 15.806H108.154V26.102H106.328V15.806ZM95.284 27.114H108.154V31.91H97.11V34.638H95.35V30.524H106.35V28.566H95.284V27.114ZM95.35 34.022H108.836V35.496H95.35V34.022ZM97.022 16.378H98.54V17.896C98.54 19.128 98.3053 20.2793 97.836 21.35C97.3666 22.4207 96.7066 23.352 95.856 24.144C95.0053 24.9213 94.0226 25.5153 92.908 25.926L91.984 24.474C92.732 24.21 93.414 23.858 94.03 23.418C94.646 22.978 95.174 22.472 95.614 21.9C96.0686 21.3133 96.4133 20.6827 96.648 20.008C96.8973 19.3333 97.022 18.6293 97.022 17.896V16.378ZM97.352 16.378H98.87V17.896C98.87 18.5853 98.9873 19.2527 99.222 19.898C99.4713 20.5433 99.816 21.1373 100.256 21.68C100.711 22.2227 101.246 22.7067 101.862 23.132C102.478 23.5427 103.153 23.8727 103.886 24.122L102.984 25.552C102.148 25.2587 101.385 24.87 100.696 24.386C100.007 23.8873 99.4126 23.308 98.914 22.648C98.4153 21.9733 98.0266 21.24 97.748 20.448C97.484 19.6413 97.352 18.7907 97.352 17.896V16.378Z" fill="#166556"/>
</svg>
