<svg width="89" height="49" viewBox="0 0 89 49" fill="none" xmlns="http://www.w3.org/2000/svg">
<rect width="89" height="49" rx="24.5" fill="#FEF9C3"/>
<path d="M25.1 31.668H43.14V33.186H25.1V31.668ZM33.174 26.894H34.978V32.108H33.174V26.894ZM27.212 17.214H29.038V20.756H39.158V17.214H40.962V27.4H27.212V17.214ZM29.038 22.252V25.904H39.158V22.252H29.038ZM45.3163 26.344H63.3123V27.818H45.3163V26.344ZM53.3903 23.77H55.2163V26.96H53.3903V23.77ZM47.6923 22.978H61.2003V24.408H47.6923V22.978ZM47.6923 16.378H61.0903V17.83H49.5183V23.748H47.6923V16.378ZM48.9683 19.656H60.5623V21.042H48.9683V19.656ZM54.3143 29.292C56.4703 29.292 58.1423 29.5633 59.3303 30.106C60.5183 30.6487 61.1123 31.4407 61.1123 32.482C61.1123 33.5233 60.5183 34.3153 59.3303 34.858C58.1423 35.4007 56.4703 35.672 54.3143 35.672C52.1436 35.672 50.4643 35.4007 49.2763 34.858C48.0883 34.3153 47.4943 33.5233 47.4943 32.482C47.4943 31.4407 48.0883 30.6487 49.2763 30.106C50.4643 29.5633 52.1436 29.292 54.3143 29.292ZM54.2923 30.678C52.7083 30.678 51.4836 30.832 50.6183 31.14C49.7529 31.448 49.3203 31.8953 49.3203 32.482C49.3203 33.0833 49.7529 33.538 50.6183 33.846C51.4836 34.1393 52.7083 34.286 54.2923 34.286C55.9056 34.286 57.1376 34.1393 57.9883 33.846C58.8536 33.538 59.2863 33.0833 59.2863 32.482C59.2863 31.8953 58.8536 31.448 57.9883 31.14C57.1376 30.832 55.9056 30.678 54.2923 30.678Z" fill="#854D0E"/>
</svg>
