<svg width="89" height="49" viewBox="0 0 89 49" fill="none" xmlns="http://www.w3.org/2000/svg">
<rect width="89" height="49" rx="24.5" fill="#FEE2E2"/>
<path d="M25.078 27.598H43.118V29.072H25.078V27.598ZM33.152 28.28H34.956V35.716H33.152V28.28ZM27.366 16.62H29.17V19.348H39.004V16.62H40.83V25.222H27.366V16.62ZM29.17 20.822V23.726H39.004V20.822H29.17ZM53.1483 17.39H54.7543V18.006C54.7543 18.6367 54.6149 19.238 54.3363 19.81C54.0723 20.3673 53.6983 20.8807 53.2143 21.35C52.7303 21.8047 52.1583 22.208 51.4983 22.56C50.8529 22.8973 50.1489 23.1833 49.3863 23.418C48.6236 23.6527 47.8316 23.8213 47.0103 23.924L46.3283 22.472C47.0469 22.3987 47.7363 22.2667 48.3963 22.076C49.0709 21.8853 49.6943 21.658 50.2663 21.394C50.8529 21.1153 51.3589 20.8 51.7843 20.448C52.2096 20.096 52.5396 19.7147 52.7743 19.304C53.0236 18.8933 53.1483 18.4607 53.1483 18.006V17.39ZM53.8963 17.39H55.5023V18.006C55.5023 18.446 55.6196 18.8787 55.8543 19.304C56.1036 19.7147 56.4409 20.096 56.8663 20.448C57.3063 20.7853 57.8123 21.0933 58.3843 21.372C58.9563 21.6507 59.5723 21.8853 60.2323 22.076C60.9069 22.2667 61.6036 22.3987 62.3223 22.472L61.6403 23.924C60.8189 23.8213 60.0269 23.6527 59.2643 23.418C58.5016 23.1833 57.7903 22.89 57.1303 22.538C56.4849 22.186 55.9203 21.7827 55.4363 21.328C54.9523 20.8587 54.5709 20.3453 54.2923 19.788C54.0283 19.2307 53.8963 18.6367 53.8963 18.006V17.39ZM46.9883 16.62H61.6843V18.094H46.9883V16.62ZM45.3383 25.794H63.3563V27.29H45.3383V25.794ZM53.4123 22.802H55.2163V26.52H53.4123V22.802ZM47.3403 29.248H61.0903V35.716H59.2643V30.722H47.3403V29.248Z" fill="#E32626"/>
</svg>
