<svg width="106" height="46" viewBox="0 0 106 46" fill="none" xmlns="http://www.w3.org/2000/svg">
<rect width="106" height="46" rx="23" fill="#FFEDD5"/>
<path d="M34.291 25.7578H32.6152V22.793H34.291V25.7578ZM28.7695 15.7891H38.2227V13.9629H39.8984V20.2363H27.0938V13.9629H28.7695V15.7891ZM38.2227 18.9258V17.0781H28.7695V18.9258H38.2227ZM42.1758 23.2227H24.7734V21.8262H42.1758V23.2227ZM39.9414 29.3242H28.5977V31.709H26.9219V28.0781H38.2871V26.3809H26.8789V25.0918H39.9414V29.3242ZM40.5215 32.5254H26.9219V31.1934H40.5215V32.5254ZM50.5547 25.0488H48.8789V22.6211H50.5547V25.0488ZM58.6973 26.4668H57V13.6621H58.6973V26.4668ZM61.5547 20.8594H57.9883V19.4414H61.5547V20.8594ZM43.7012 24.5117C45.2337 24.5117 46.6302 24.501 47.8906 24.4795C49.151 24.458 50.4831 24.4007 51.8867 24.3076C53.2904 24.2145 54.6009 24.082 55.8184 23.9102L55.9688 25.1348C54.1497 25.4499 52.2734 25.654 50.3398 25.7471C48.4062 25.8402 46.2578 25.8867 43.8945 25.8867L43.7012 24.5117ZM58.6973 32.7402H57V28.7656H46.043V27.4121H58.6973V32.7402ZM55.2383 16.6914H44.1738V15.4023H55.2383V16.6914ZM49.6953 17.4219C50.5977 17.4219 51.3854 17.5365 52.0586 17.7656C52.7318 17.9948 53.2546 18.3206 53.627 18.7432C53.9993 19.1657 54.1855 19.6634 54.1855 20.2363C54.1855 20.8092 53.9993 21.3105 53.627 21.7402C53.2546 22.1699 52.7318 22.5029 52.0586 22.7393C51.3854 22.9756 50.5977 23.0938 49.6953 23.0938C48.8073 23.0938 48.0267 22.9756 47.3535 22.7393C46.6803 22.5029 46.1576 22.1699 45.7852 21.7402C45.4128 21.3105 45.2266 20.8092 45.2266 20.2363C45.2266 19.6634 45.4128 19.1657 45.7852 18.7432C46.1576 18.3206 46.6803 17.9948 47.3535 17.7656C48.0267 17.5365 48.8073 17.4219 49.6953 17.4219ZM49.6953 18.625C49.1224 18.6107 48.6211 18.668 48.1914 18.7969C47.7617 18.9258 47.4287 19.112 47.1924 19.3555C46.9561 19.599 46.8379 19.8926 46.8379 20.2363C46.8379 20.5658 46.9561 20.8558 47.1924 21.1064C47.4287 21.3571 47.7617 21.5505 48.1914 21.6865C48.6211 21.8226 49.1224 21.8906 49.6953 21.8906C50.2826 21.8906 50.791 21.8226 51.2207 21.6865C51.6504 21.5505 51.9834 21.3571 52.2197 21.1064C52.4561 20.8558 52.5742 20.5658 52.5742 20.2363C52.5742 19.8926 52.4561 19.599 52.2197 19.3555C51.9834 19.112 51.6504 18.9258 51.2207 18.7969C50.791 18.668 50.2826 18.6107 49.6953 18.625ZM50.5547 16.0684H48.8789V13.4902H50.5547V16.0684ZM78.5488 23.5449H76.8945V13.6406H78.5488V23.5449ZM78.5703 29.0879H67.8496V31.752H66.1953V27.7773H76.8945V25.8652H66.1523V24.5117H78.5703V29.0879ZM79.2578 32.5254H66.1953V31.1504H79.2578V32.5254ZM69.2676 15.6602C69.2676 16.8203 69.0348 17.916 68.5693 18.9473C68.1038 19.9785 67.4593 20.8737 66.6357 21.6328C65.8122 22.3919 64.8704 22.9648 63.8105 23.3516L62.9297 22.0195C63.8893 21.6758 64.7415 21.1852 65.4863 20.5479C66.2311 19.9105 66.8112 19.1657 67.2266 18.3135C67.6419 17.4613 67.8496 16.5768 67.8496 15.6602V14.1992H69.2676V15.6602ZM69.5684 15.6602C69.5684 16.5482 69.776 17.3932 70.1914 18.1953C70.6068 18.9974 71.1833 19.6992 71.9209 20.3008C72.6585 20.9023 73.5 21.3607 74.4453 21.6758L73.6074 22.9863C72.5475 22.6139 71.6058 22.0697 70.7822 21.3535C69.9587 20.6374 69.3141 19.7887 68.8486 18.8076C68.3831 17.8265 68.1504 16.7773 68.1504 15.6602V14.1992H69.5684V15.6602Z" fill="#C2410C"/>
</svg>
