<svg width="89" height="49" viewBox="0 0 89 49" fill="none" xmlns="http://www.w3.org/2000/svg">
<rect width="89" height="49" rx="24.5" fill="#DBEAFE"/>
<path d="M39.994 18.776H43.426V20.294H39.994V18.776ZM39.994 23.022H43.426V24.54H39.994V23.022ZM30.644 16.994C31.656 16.994 32.5507 17.192 33.328 17.588C34.1053 17.984 34.714 18.534 35.154 19.238C35.6087 19.942 35.836 20.756 35.836 21.68C35.836 22.6187 35.6087 23.44 35.154 24.144C34.714 24.8333 34.1053 25.376 33.328 25.772C32.5507 26.168 31.656 26.366 30.644 26.366C29.6613 26.366 28.774 26.168 27.982 25.772C27.2047 25.376 26.5887 24.8333 26.134 24.144C25.6793 23.44 25.452 22.6187 25.452 21.68C25.452 20.756 25.6793 19.942 26.134 19.238C26.5887 18.534 27.2047 17.984 27.982 17.588C28.774 17.192 29.6613 16.994 30.644 16.994ZM30.644 18.534C29.9987 18.534 29.4193 18.6733 28.906 18.952C28.3927 19.216 27.982 19.5827 27.674 20.052C27.3807 20.5213 27.234 21.064 27.234 21.68C27.234 22.3107 27.3807 22.8607 27.674 23.33C27.982 23.7993 28.3927 24.166 28.906 24.43C29.4193 24.694 29.9987 24.826 30.644 24.826C31.304 24.826 31.8907 24.694 32.404 24.43C32.9173 24.166 33.3207 23.7993 33.614 23.33C33.922 22.8607 34.076 22.3107 34.076 21.68C34.076 21.064 33.922 20.5213 33.614 20.052C33.3207 19.5827 32.9173 19.216 32.404 18.952C31.8907 18.6733 31.304 18.534 30.644 18.534ZM38.718 15.806H40.544V27.598H38.718V15.806ZM34.208 28.214C35.5427 28.214 36.7013 28.368 37.684 28.676C38.6667 28.9693 39.422 29.3947 39.95 29.952C40.478 30.4947 40.742 31.162 40.742 31.954C40.742 32.7313 40.478 33.3987 39.95 33.956C39.422 34.4987 38.6667 34.9167 37.684 35.21C36.7013 35.518 35.5427 35.672 34.208 35.672C32.8587 35.672 31.6927 35.518 30.71 35.21C29.7273 34.9167 28.972 34.4987 28.444 33.956C27.916 33.3987 27.652 32.7313 27.652 31.954C27.652 31.162 27.916 30.4947 28.444 29.952C28.972 29.3947 29.7273 28.9693 30.71 28.676C31.6927 28.368 32.8587 28.214 34.208 28.214ZM34.208 29.688C33.2253 29.688 32.3747 29.776 31.656 29.952C30.952 30.128 30.4093 30.3847 30.028 30.722C29.6467 31.0593 29.456 31.47 29.456 31.954C29.456 32.4233 29.6467 32.8267 30.028 33.164C30.4093 33.5013 30.952 33.758 31.656 33.934C32.3747 34.11 33.2253 34.198 34.208 34.198C35.1907 34.198 36.034 34.11 36.738 33.934C37.442 33.758 37.9847 33.5013 38.366 33.164C38.7473 32.8267 38.938 32.4233 38.938 31.954C38.938 31.47 38.7473 31.0593 38.366 30.722C37.9847 30.3847 37.442 30.128 36.738 29.952C36.034 29.776 35.1907 29.688 34.208 29.688ZM46.2183 18.732H62.3883V20.228H46.2183V18.732ZM45.3383 31.888H63.3783V33.384H45.3383V31.888ZM53.4123 28.72H55.2163V32.46H53.4123V28.72ZM54.3143 21.548C55.6489 21.548 56.8003 21.702 57.7683 22.01C58.7509 22.3033 59.5063 22.7287 60.0343 23.286C60.5623 23.8433 60.8263 24.5253 60.8263 25.332C60.8263 26.124 60.5623 26.806 60.0343 27.378C59.5063 27.95 58.7509 28.39 57.7683 28.698C56.8003 28.9913 55.6489 29.138 54.3143 29.138C52.9796 29.138 51.8209 28.9913 50.8383 28.698C49.8703 28.39 49.1223 27.95 48.5943 27.378C48.0663 26.806 47.8023 26.124 47.8023 25.332C47.8023 24.5253 48.0663 23.8433 48.5943 23.286C49.1223 22.7287 49.8703 22.3033 50.8383 22.01C51.8209 21.702 52.9796 21.548 54.3143 21.548ZM54.3143 23C53.3463 23 52.5103 23.0953 51.8063 23.286C51.1169 23.462 50.5816 23.726 50.2003 24.078C49.8336 24.4153 49.6503 24.8333 49.6503 25.332C49.6503 25.816 49.8336 26.234 50.2003 26.586C50.5816 26.938 51.1169 27.2093 51.8063 27.4C52.5103 27.576 53.3463 27.664 54.3143 27.664C55.2823 27.664 56.1109 27.576 56.8003 27.4C57.4896 27.2093 58.0249 26.938 58.4063 26.586C58.7876 26.234 58.9783 25.816 58.9783 25.332C58.9783 24.8333 58.7876 24.4153 58.4063 24.078C58.0249 23.726 57.4896 23.462 56.8003 23.286C56.1109 23.0953 55.2823 23 54.3143 23ZM53.4123 16.136H55.2163V19.634H53.4123V16.136Z" fill="#1E40AF"/>
</svg>
