<svg width="89" height="49" viewBox="0 0 89 49" fill="none" xmlns="http://www.w3.org/2000/svg">
<rect width="89" height="49" rx="24.5" fill="#DCFCE7"/>
<path d="M25.078 27.202H43.118V28.72H25.078V27.202ZM33.152 28.126H34.956V35.716H33.152V28.126ZM34.054 16.598C35.4473 16.598 36.6647 16.7813 37.706 17.148C38.7473 17.5 39.5613 18.006 40.148 18.666C40.7347 19.3113 41.028 20.0813 41.028 20.976C41.028 21.856 40.7347 22.626 40.148 23.286C39.5613 23.946 38.7473 24.452 37.706 24.804C36.6647 25.156 35.4473 25.332 34.054 25.332C32.69 25.332 31.48 25.156 30.424 24.804C29.3827 24.452 28.5687 23.946 27.982 23.286C27.3953 22.626 27.102 21.856 27.102 20.976C27.102 20.0813 27.3953 19.3113 27.982 18.666C28.5687 18.006 29.3827 17.5 30.424 17.148C31.48 16.7813 32.69 16.598 34.054 16.598ZM34.054 18.072C33.0567 18.072 32.1693 18.1893 31.392 18.424C30.6293 18.6587 30.0353 18.996 29.61 19.436C29.1847 19.8613 28.972 20.3673 28.972 20.954C28.972 21.5553 29.1847 22.076 29.61 22.516C30.0353 22.9413 30.6293 23.2713 31.392 23.506C32.1693 23.7407 33.0567 23.858 34.054 23.858C35.0807 23.858 35.9753 23.7407 36.738 23.506C37.5007 23.2713 38.0947 22.9413 38.52 22.516C38.9453 22.076 39.158 21.5553 39.158 20.954C39.158 20.3673 38.9453 19.8613 38.52 19.436C38.0947 18.996 37.5007 18.6587 36.738 18.424C35.9753 18.1893 35.0807 18.072 34.054 18.072ZM53.3903 16.51H54.9963V17.632C54.9963 18.3947 54.8496 19.1133 54.5563 19.788C54.2629 20.448 53.8596 21.0567 53.3463 21.614C52.8476 22.1713 52.2609 22.67 51.5863 23.11C50.9116 23.55 50.1783 23.9167 49.3863 24.21C48.6089 24.5033 47.8096 24.716 46.9883 24.848L46.2403 23.374C46.9736 23.2713 47.6849 23.0953 48.3743 22.846C49.0783 22.5967 49.7309 22.296 50.3323 21.944C50.9336 21.5773 51.4616 21.1667 51.9163 20.712C52.3856 20.2573 52.7449 19.7733 52.9943 19.26C53.2583 18.732 53.3903 18.1893 53.3903 17.632V16.51ZM53.6983 16.51H55.2823V17.632C55.2823 18.1893 55.4143 18.7247 55.6783 19.238C55.9423 19.7513 56.3016 20.2353 56.7563 20.69C57.2256 21.1447 57.7609 21.5553 58.3623 21.922C58.9636 22.2887 59.6089 22.5967 60.2983 22.846C61.0023 23.0953 61.7136 23.2713 62.4323 23.374L61.7063 24.848C60.8849 24.716 60.0856 24.5033 59.3083 24.21C58.5309 23.902 57.7976 23.528 57.1083 23.088C56.4336 22.648 55.8396 22.1493 55.3263 21.592C54.8276 21.0347 54.4316 20.426 54.1383 19.766C53.8449 19.0913 53.6983 18.38 53.6983 17.632V16.51ZM53.3903 28.148H55.1943V35.716H53.3903V28.148ZM45.3383 27.004H63.3123V28.522H45.3383V27.004Z" fill="#166556"/>
</svg>
