<svg width="89" height="49" viewBox="0 0 89 49" fill="none" xmlns="http://www.w3.org/2000/svg">
<rect width="89" height="49" rx="24.5" fill="#DBEAFE"/>
<path d="M30.314 25.156H32.118V27.686H30.314V25.156ZM38.696 15.828H40.522V29.16H38.696V15.828ZM39.752 21.834H43.426V23.352H39.752V21.834ZM25.21 28.588L24.99 27.114C26.178 27.114 27.476 27.1067 28.884 27.092C30.3067 27.0627 31.7587 27.004 33.24 26.916C34.7213 26.828 36.144 26.6887 37.508 26.498L37.64 27.796C36.232 28.0453 34.7873 28.2287 33.306 28.346C31.8393 28.4487 30.4093 28.5147 29.016 28.544C27.6373 28.5733 26.3687 28.588 25.21 28.588ZM27.432 30.172H40.522V35.716H38.696V31.624H27.432V30.172ZM25.496 17.61H36.914V18.996H25.496V17.61ZM31.194 19.744C32.602 19.744 33.724 20.008 34.56 20.536C35.4107 21.064 35.836 21.7827 35.836 22.692C35.836 23.6013 35.4107 24.32 34.56 24.848C33.724 25.376 32.602 25.64 31.194 25.64C29.8007 25.64 28.6787 25.376 27.828 24.848C26.9773 24.32 26.552 23.6013 26.552 22.692C26.552 21.7827 26.9773 21.064 27.828 20.536C28.6787 20.008 29.8007 19.744 31.194 19.744ZM31.194 21.02C30.314 21.02 29.61 21.1667 29.082 21.46C28.554 21.7533 28.29 22.164 28.29 22.692C28.29 23.1907 28.554 23.6013 29.082 23.924C29.61 24.232 30.314 24.386 31.194 24.386C32.074 24.386 32.778 24.232 33.306 23.924C33.834 23.6013 34.098 23.1907 34.098 22.692C34.098 22.164 33.834 21.7533 33.306 21.46C32.778 21.1667 32.074 21.02 31.194 21.02ZM30.314 15.652H32.118V18.292H30.314V15.652ZM59.8143 15.806H61.6403V26.102H59.8143V15.806ZM48.7703 27.114H61.6403V31.91H50.5963V34.638H48.8363V30.524H59.8363V28.566H48.7703V27.114ZM48.8363 34.022H62.3223V35.496H48.8363V34.022ZM50.5083 16.378H52.0263V17.896C52.0263 19.128 51.7916 20.2793 51.3223 21.35C50.8529 22.4207 50.1929 23.352 49.3423 24.144C48.4916 24.9213 47.5089 25.5153 46.3943 25.926L45.4703 24.474C46.2183 24.21 46.9003 23.858 47.5163 23.418C48.1323 22.978 48.6603 22.472 49.1003 21.9C49.5549 21.3133 49.8996 20.6827 50.1343 20.008C50.3836 19.3333 50.5083 18.6293 50.5083 17.896V16.378ZM50.8383 16.378H52.3563V17.896C52.3563 18.5853 52.4736 19.2527 52.7083 19.898C52.9576 20.5433 53.3023 21.1373 53.7423 21.68C54.1969 22.2227 54.7323 22.7067 55.3483 23.132C55.9643 23.5427 56.6389 23.8727 57.3723 24.122L56.4703 25.552C55.6343 25.2587 54.8716 24.87 54.1823 24.386C53.4929 23.8873 52.8989 23.308 52.4003 22.648C51.9016 21.9733 51.5129 21.24 51.2343 20.448C50.9703 19.6413 50.8383 18.7907 50.8383 17.896V16.378Z" fill="#1E40AF"/>
</svg>
